<mxfile host="app.diagrams.net" modified="2023-04-02T04:10:29.719Z" agent="Mozilla/5.0 (Windows NT 10.0; Win64; x64) AppleWebKit/537.36 (KHTML, like Gecko) Chrome/97.0.4692.71 Safari/537.36" etag="2D63ypRv5JO9uvbDgrs-" version="21.1.2" type="github" pages="3">
  <diagram name="第 1 页" id="lAeHY45FKhOnQ7Vn6mPi">
    <mxGraphModel dx="1050" dy="625" grid="0" gridSize="10" guides="1" tooltips="1" connect="1" arrows="1" fold="1" page="1" pageScale="1" pageWidth="827" pageHeight="1169" math="0" shadow="0">
      <root>
        <mxCell id="0" />
        <mxCell id="1" parent="0" />
        <mxCell id="IMCtLNOy-mcXA4ENWFEA-23" style="edgeStyle=orthogonalEdgeStyle;rounded=0;orthogonalLoop=1;jettySize=auto;html=1;exitX=0.5;exitY=1;exitDx=0;exitDy=0;entryX=0.5;entryY=0;entryDx=0;entryDy=0;" parent="1" source="IMCtLNOy-mcXA4ENWFEA-1" target="IMCtLNOy-mcXA4ENWFEA-2" edge="1">
          <mxGeometry relative="1" as="geometry" />
        </mxCell>
        <mxCell id="IMCtLNOy-mcXA4ENWFEA-24" style="edgeStyle=orthogonalEdgeStyle;rounded=0;orthogonalLoop=1;jettySize=auto;html=1;exitX=0.5;exitY=1;exitDx=0;exitDy=0;entryX=0.5;entryY=0;entryDx=0;entryDy=0;" parent="1" source="IMCtLNOy-mcXA4ENWFEA-1" target="IMCtLNOy-mcXA4ENWFEA-3" edge="1">
          <mxGeometry relative="1" as="geometry" />
        </mxCell>
        <mxCell id="IMCtLNOy-mcXA4ENWFEA-1" value="&lt;font style=&quot;font-size: 16px;&quot;&gt;RootWindowContainer&lt;/font&gt;" style="rounded=1;whiteSpace=wrap;html=1;fillColor=#f5f5f5;fontColor=#333333;strokeColor=#666666;comic=1;fontFamily=Comic Sans MS;" parent="1" vertex="1">
          <mxGeometry x="367" y="30" width="200" height="60" as="geometry" />
        </mxCell>
        <mxCell id="IMCtLNOy-mcXA4ENWFEA-25" style="edgeStyle=orthogonalEdgeStyle;rounded=0;orthogonalLoop=1;jettySize=auto;html=1;exitX=0.5;exitY=1;exitDx=0;exitDy=0;" parent="1" source="IMCtLNOy-mcXA4ENWFEA-2" target="IMCtLNOy-mcXA4ENWFEA-4" edge="1">
          <mxGeometry relative="1" as="geometry">
            <Array as="points">
              <mxPoint x="467" y="200" />
              <mxPoint x="270" y="200" />
            </Array>
          </mxGeometry>
        </mxCell>
        <mxCell id="IMCtLNOy-mcXA4ENWFEA-26" style="edgeStyle=orthogonalEdgeStyle;rounded=0;orthogonalLoop=1;jettySize=auto;html=1;exitX=0.5;exitY=1;exitDx=0;exitDy=0;entryX=0.5;entryY=0;entryDx=0;entryDy=0;" parent="1" source="IMCtLNOy-mcXA4ENWFEA-2" target="IMCtLNOy-mcXA4ENWFEA-5" edge="1">
          <mxGeometry relative="1" as="geometry">
            <Array as="points">
              <mxPoint x="467" y="200" />
              <mxPoint x="660" y="200" />
            </Array>
          </mxGeometry>
        </mxCell>
        <mxCell id="IMCtLNOy-mcXA4ENWFEA-2" value="&lt;font style=&quot;font-size: 16px;&quot;&gt;DisplayContent&lt;/font&gt;" style="rounded=1;whiteSpace=wrap;html=1;fillColor=#dae8fc;strokeColor=#6c8ebf;comic=1;fontFamily=Comic Sans MS;" parent="1" vertex="1">
          <mxGeometry x="367" y="130" width="200" height="60" as="geometry" />
        </mxCell>
        <mxCell id="IMCtLNOy-mcXA4ENWFEA-3" value="&lt;font style=&quot;font-size: 16px;&quot;&gt;DisplayContent&lt;/font&gt;" style="rounded=1;whiteSpace=wrap;html=1;fillColor=#dae8fc;strokeColor=#6c8ebf;comic=1;fontFamily=Comic Sans MS;" parent="1" vertex="1">
          <mxGeometry x="610" y="130" width="200" height="60" as="geometry" />
        </mxCell>
        <mxCell id="IMCtLNOy-mcXA4ENWFEA-27" style="edgeStyle=orthogonalEdgeStyle;rounded=0;orthogonalLoop=1;jettySize=auto;html=1;exitX=0.5;exitY=1;exitDx=0;exitDy=0;entryX=0.5;entryY=0;entryDx=0;entryDy=0;" parent="1" source="IMCtLNOy-mcXA4ENWFEA-4" target="IMCtLNOy-mcXA4ENWFEA-8" edge="1">
          <mxGeometry relative="1" as="geometry" />
        </mxCell>
        <mxCell id="IMCtLNOy-mcXA4ENWFEA-4" value="&lt;font style=&quot;font-size: 16px;&quot;&gt;WindowContainers&lt;/font&gt;" style="rounded=1;whiteSpace=wrap;html=1;fillColor=#f5f5f5;fontColor=#333333;strokeColor=#666666;comic=1;fontFamily=Comic Sans MS;" parent="1" vertex="1">
          <mxGeometry x="170" y="220" width="200" height="60" as="geometry" />
        </mxCell>
        <mxCell id="IMCtLNOy-mcXA4ENWFEA-28" style="edgeStyle=orthogonalEdgeStyle;rounded=0;orthogonalLoop=1;jettySize=auto;html=1;exitX=0.5;exitY=1;exitDx=0;exitDy=0;entryX=0.5;entryY=0;entryDx=0;entryDy=0;" parent="1" source="IMCtLNOy-mcXA4ENWFEA-5" target="IMCtLNOy-mcXA4ENWFEA-13" edge="1">
          <mxGeometry relative="1" as="geometry" />
        </mxCell>
        <mxCell id="IMCtLNOy-mcXA4ENWFEA-5" value="&lt;font style=&quot;font-size: 16px;&quot;&gt;NonAppWindowContainers&lt;/font&gt;" style="rounded=1;whiteSpace=wrap;html=1;fillColor=#f5f5f5;fontColor=#333333;strokeColor=#666666;comic=1;fontFamily=Comic Sans MS;" parent="1" vertex="1">
          <mxGeometry x="560" y="220" width="200" height="60" as="geometry" />
        </mxCell>
        <mxCell id="IMCtLNOy-mcXA4ENWFEA-7" value="&lt;span style=&quot;font-size: 16px;&quot;&gt;WindowState&lt;/span&gt;" style="rounded=1;whiteSpace=wrap;html=1;fillColor=#e1d5e7;strokeColor=#9673a6;comic=1;fontFamily=Comic Sans MS;" parent="1" vertex="1">
          <mxGeometry x="580" y="400" width="160" height="60" as="geometry" />
        </mxCell>
        <mxCell id="IMCtLNOy-mcXA4ENWFEA-30" style="edgeStyle=orthogonalEdgeStyle;rounded=0;orthogonalLoop=1;jettySize=auto;html=1;exitX=0.5;exitY=1;exitDx=0;exitDy=0;entryX=0.5;entryY=0;entryDx=0;entryDy=0;" parent="1" source="IMCtLNOy-mcXA4ENWFEA-8" target="IMCtLNOy-mcXA4ENWFEA-9" edge="1">
          <mxGeometry relative="1" as="geometry">
            <Array as="points">
              <mxPoint x="270" y="380" />
              <mxPoint x="90" y="380" />
            </Array>
          </mxGeometry>
        </mxCell>
        <mxCell id="IMCtLNOy-mcXA4ENWFEA-31" style="edgeStyle=orthogonalEdgeStyle;rounded=0;orthogonalLoop=1;jettySize=auto;html=1;exitX=0.5;exitY=1;exitDx=0;exitDy=0;entryX=0.5;entryY=0;entryDx=0;entryDy=0;" parent="1" source="IMCtLNOy-mcXA4ENWFEA-8" target="IMCtLNOy-mcXA4ENWFEA-11" edge="1">
          <mxGeometry relative="1" as="geometry" />
        </mxCell>
        <mxCell id="IMCtLNOy-mcXA4ENWFEA-32" style="edgeStyle=orthogonalEdgeStyle;rounded=0;orthogonalLoop=1;jettySize=auto;html=1;exitX=0.5;exitY=1;exitDx=0;exitDy=0;entryX=0.5;entryY=0;entryDx=0;entryDy=0;" parent="1" source="IMCtLNOy-mcXA4ENWFEA-8" target="IMCtLNOy-mcXA4ENWFEA-12" edge="1">
          <mxGeometry relative="1" as="geometry">
            <Array as="points">
              <mxPoint x="270" y="380" />
              <mxPoint x="450" y="380" />
            </Array>
          </mxGeometry>
        </mxCell>
        <mxCell id="IMCtLNOy-mcXA4ENWFEA-8" value="&lt;font style=&quot;font-size: 16px;&quot;&gt;DisplayArea.Root&lt;/font&gt;" style="rounded=1;whiteSpace=wrap;html=1;fillColor=#d5e8d4;strokeColor=#82b366;comic=1;fontFamily=Comic Sans MS;" parent="1" vertex="1">
          <mxGeometry x="170" y="310" width="200" height="60" as="geometry" />
        </mxCell>
        <mxCell id="IMCtLNOy-mcXA4ENWFEA-33" style="edgeStyle=orthogonalEdgeStyle;rounded=0;orthogonalLoop=1;jettySize=auto;html=1;exitX=0.5;exitY=1;exitDx=0;exitDy=0;entryX=0.5;entryY=0;entryDx=0;entryDy=0;" parent="1" source="IMCtLNOy-mcXA4ENWFEA-9" target="IMCtLNOy-mcXA4ENWFEA-14" edge="1">
          <mxGeometry relative="1" as="geometry" />
        </mxCell>
        <mxCell id="IMCtLNOy-mcXA4ENWFEA-9" value="&lt;font style=&quot;font-size: 16px;&quot;&gt;DisplayArea.Tokens&lt;/font&gt;" style="rounded=1;whiteSpace=wrap;html=1;fillColor=#d5e8d4;strokeColor=#82b366;comic=1;fontFamily=Comic Sans MS;" parent="1" vertex="1">
          <mxGeometry x="10" y="400" width="160" height="60" as="geometry" />
        </mxCell>
        <mxCell id="IMCtLNOy-mcXA4ENWFEA-36" style="edgeStyle=orthogonalEdgeStyle;rounded=0;orthogonalLoop=1;jettySize=auto;html=1;exitX=0.5;exitY=1;exitDx=0;exitDy=0;" parent="1" source="IMCtLNOy-mcXA4ENWFEA-11" target="IMCtLNOy-mcXA4ENWFEA-18" edge="1">
          <mxGeometry relative="1" as="geometry" />
        </mxCell>
        <mxCell id="IMCtLNOy-mcXA4ENWFEA-11" value="&lt;font style=&quot;font-size: 16px;&quot;&gt;TaskDisplayArea&lt;/font&gt;" style="rounded=1;whiteSpace=wrap;html=1;fillColor=#d5e8d4;strokeColor=#82b366;comic=1;fontFamily=Comic Sans MS;" parent="1" vertex="1">
          <mxGeometry x="190" y="400" width="160" height="60" as="geometry" />
        </mxCell>
        <mxCell id="IMCtLNOy-mcXA4ENWFEA-35" style="edgeStyle=orthogonalEdgeStyle;rounded=0;orthogonalLoop=1;jettySize=auto;html=1;exitX=0.5;exitY=1;exitDx=0;exitDy=0;entryX=0.5;entryY=0;entryDx=0;entryDy=0;" parent="1" source="IMCtLNOy-mcXA4ENWFEA-12" target="IMCtLNOy-mcXA4ENWFEA-16" edge="1">
          <mxGeometry relative="1" as="geometry" />
        </mxCell>
        <mxCell id="IMCtLNOy-mcXA4ENWFEA-12" value="&lt;font style=&quot;font-size: 16px;&quot;&gt;ImeContainer&lt;/font&gt;" style="rounded=1;whiteSpace=wrap;html=1;fillColor=#d5e8d4;strokeColor=#82b366;comic=1;fontFamily=Comic Sans MS;" parent="1" vertex="1">
          <mxGeometry x="370" y="400" width="160" height="60" as="geometry" />
        </mxCell>
        <mxCell id="IMCtLNOy-mcXA4ENWFEA-29" style="edgeStyle=orthogonalEdgeStyle;rounded=0;orthogonalLoop=1;jettySize=auto;html=1;exitX=0.5;exitY=1;exitDx=0;exitDy=0;" parent="1" source="IMCtLNOy-mcXA4ENWFEA-13" target="IMCtLNOy-mcXA4ENWFEA-7" edge="1">
          <mxGeometry relative="1" as="geometry" />
        </mxCell>
        <mxCell id="IMCtLNOy-mcXA4ENWFEA-13" value="WindowToken" style="rounded=1;whiteSpace=wrap;html=1;fillColor=#ffe6cc;strokeColor=#d79b00;comic=1;fontFamily=Comic Sans MS;fontSize=16;" parent="1" vertex="1">
          <mxGeometry x="580" y="310" width="160" height="60" as="geometry" />
        </mxCell>
        <mxCell id="IMCtLNOy-mcXA4ENWFEA-34" style="edgeStyle=orthogonalEdgeStyle;rounded=0;orthogonalLoop=1;jettySize=auto;html=1;exitX=0.5;exitY=1;exitDx=0;exitDy=0;" parent="1" source="IMCtLNOy-mcXA4ENWFEA-14" target="IMCtLNOy-mcXA4ENWFEA-15" edge="1">
          <mxGeometry relative="1" as="geometry" />
        </mxCell>
        <mxCell id="IMCtLNOy-mcXA4ENWFEA-14" value="WindowToken" style="rounded=1;whiteSpace=wrap;html=1;fillColor=#ffe6cc;strokeColor=#d79b00;comic=1;fontFamily=Comic Sans MS;fontSize=16;" parent="1" vertex="1">
          <mxGeometry x="10" y="490" width="160" height="60" as="geometry" />
        </mxCell>
        <mxCell id="IMCtLNOy-mcXA4ENWFEA-15" value="&lt;span style=&quot;font-size: 16px;&quot;&gt;WindowState&lt;/span&gt;" style="rounded=1;whiteSpace=wrap;html=1;fillColor=#e1d5e7;strokeColor=#9673a6;comic=1;fontFamily=Comic Sans MS;" parent="1" vertex="1">
          <mxGeometry x="10" y="580" width="160" height="60" as="geometry" />
        </mxCell>
        <mxCell id="IMCtLNOy-mcXA4ENWFEA-38" style="edgeStyle=orthogonalEdgeStyle;rounded=0;orthogonalLoop=1;jettySize=auto;html=1;exitX=0.5;exitY=1;exitDx=0;exitDy=0;" parent="1" source="IMCtLNOy-mcXA4ENWFEA-16" target="IMCtLNOy-mcXA4ENWFEA-17" edge="1">
          <mxGeometry relative="1" as="geometry" />
        </mxCell>
        <mxCell id="IMCtLNOy-mcXA4ENWFEA-16" value="WindowToken" style="rounded=1;whiteSpace=wrap;html=1;fillColor=#ffe6cc;strokeColor=#d79b00;comic=1;fontFamily=Comic Sans MS;fontSize=16;" parent="1" vertex="1">
          <mxGeometry x="370" y="490" width="160" height="60" as="geometry" />
        </mxCell>
        <mxCell id="IMCtLNOy-mcXA4ENWFEA-17" value="&lt;span style=&quot;font-size: 16px;&quot;&gt;WindowState&lt;/span&gt;" style="rounded=1;whiteSpace=wrap;html=1;fillColor=#e1d5e7;strokeColor=#9673a6;comic=1;fontFamily=Comic Sans MS;" parent="1" vertex="1">
          <mxGeometry x="370" y="580" width="160" height="60" as="geometry" />
        </mxCell>
        <mxCell id="IMCtLNOy-mcXA4ENWFEA-37" style="edgeStyle=orthogonalEdgeStyle;rounded=0;orthogonalLoop=1;jettySize=auto;html=1;exitX=0.5;exitY=1;exitDx=0;exitDy=0;entryX=0.5;entryY=0;entryDx=0;entryDy=0;" parent="1" source="IMCtLNOy-mcXA4ENWFEA-18" target="IMCtLNOy-mcXA4ENWFEA-19" edge="1">
          <mxGeometry relative="1" as="geometry" />
        </mxCell>
        <mxCell id="IMCtLNOy-mcXA4ENWFEA-18" value="&lt;font style=&quot;font-size: 16px;&quot;&gt;ActivityTask&lt;/font&gt;" style="rounded=1;whiteSpace=wrap;html=1;fillColor=#d5e8d4;strokeColor=#82b366;comic=1;fontFamily=Comic Sans MS;" parent="1" vertex="1">
          <mxGeometry x="190" y="490" width="160" height="60" as="geometry" />
        </mxCell>
        <mxCell id="IMCtLNOy-mcXA4ENWFEA-39" style="edgeStyle=orthogonalEdgeStyle;rounded=0;orthogonalLoop=1;jettySize=auto;html=1;exitX=0.5;exitY=1;exitDx=0;exitDy=0;" parent="1" source="IMCtLNOy-mcXA4ENWFEA-19" target="IMCtLNOy-mcXA4ENWFEA-20" edge="1">
          <mxGeometry relative="1" as="geometry" />
        </mxCell>
        <mxCell id="IMCtLNOy-mcXA4ENWFEA-19" value="&lt;font style=&quot;font-size: 16px;&quot;&gt;Task&lt;/font&gt;" style="rounded=1;whiteSpace=wrap;html=1;fillColor=#d5e8d4;strokeColor=#82b366;comic=1;fontFamily=Comic Sans MS;" parent="1" vertex="1">
          <mxGeometry x="190" y="580" width="160" height="60" as="geometry" />
        </mxCell>
        <mxCell id="IMCtLNOy-mcXA4ENWFEA-40" style="edgeStyle=orthogonalEdgeStyle;rounded=0;orthogonalLoop=1;jettySize=auto;html=1;exitX=0.5;exitY=1;exitDx=0;exitDy=0;entryX=0.5;entryY=0;entryDx=0;entryDy=0;" parent="1" source="IMCtLNOy-mcXA4ENWFEA-20" target="IMCtLNOy-mcXA4ENWFEA-21" edge="1">
          <mxGeometry relative="1" as="geometry" />
        </mxCell>
        <mxCell id="IMCtLNOy-mcXA4ENWFEA-20" value="&lt;font style=&quot;font-size: 16px;&quot;&gt;ActivityRecord&lt;/font&gt;" style="rounded=1;whiteSpace=wrap;html=1;fillColor=#ffe6cc;strokeColor=#d79b00;comic=1;fontFamily=Comic Sans MS;" parent="1" vertex="1">
          <mxGeometry x="190" y="670" width="160" height="60" as="geometry" />
        </mxCell>
        <mxCell id="IMCtLNOy-mcXA4ENWFEA-21" value="&lt;span style=&quot;font-size: 16px;&quot;&gt;WindowState&lt;/span&gt;" style="rounded=1;whiteSpace=wrap;html=1;fillColor=#e1d5e7;strokeColor=#9673a6;comic=1;fontFamily=Comic Sans MS;" parent="1" vertex="1">
          <mxGeometry x="190" y="760" width="160" height="60" as="geometry" />
        </mxCell>
        <mxCell id="IMCtLNOy-mcXA4ENWFEA-41" value="&lt;font style=&quot;font-size: 16px;&quot;&gt;WindowContainers&lt;/font&gt;" style="rounded=1;whiteSpace=wrap;html=1;fillColor=#d5e8d4;strokeColor=#82b366;comic=1;fontFamily=Comic Sans MS;" parent="1" vertex="1">
          <mxGeometry x="170" y="220" width="200" height="60" as="geometry" />
        </mxCell>
        <mxCell id="IMCtLNOy-mcXA4ENWFEA-42" value="&lt;font style=&quot;font-size: 16px;&quot;&gt;NonAppWindowContainers&lt;/font&gt;" style="rounded=1;whiteSpace=wrap;html=1;fillColor=#d5e8d4;strokeColor=#82b366;comic=1;fontFamily=Comic Sans MS;" parent="1" vertex="1">
          <mxGeometry x="560" y="220" width="200" height="60" as="geometry" />
        </mxCell>
      </root>
    </mxGraphModel>
  </diagram>
  <diagram id="M32I50oGsIUyyNW79CaW" name="第 2 页">
    <mxGraphModel dx="955" dy="568" grid="0" gridSize="10" guides="1" tooltips="1" connect="1" arrows="1" fold="1" page="1" pageScale="1" pageWidth="827" pageHeight="1169" math="0" shadow="0">
      <root>
        <mxCell id="0" />
        <mxCell id="1" parent="0" />
        <mxCell id="SzxMd70FmIVpg1iMvTQR-1" value="" style="rounded=1;whiteSpace=wrap;html=1;arcSize=5;fillColor=#f5f5f5;fontColor=#333333;strokeColor=#666666;" vertex="1" parent="1">
          <mxGeometry x="170" y="20" width="430" height="550" as="geometry" />
        </mxCell>
        <mxCell id="SzxMd70FmIVpg1iMvTQR-2" value="&lt;font face=&quot;Comic Sans MS&quot; style=&quot;font-size: 16px;&quot;&gt;DecorView&lt;/font&gt;" style="rounded=1;whiteSpace=wrap;html=1;fillColor=none;strokeColor=none;" vertex="1" parent="1">
          <mxGeometry x="325" y="10" width="120" height="60" as="geometry" />
        </mxCell>
        <mxCell id="SzxMd70FmIVpg1iMvTQR-3" value="" style="rounded=1;whiteSpace=wrap;html=1;arcSize=2;fillColor=#dae8fc;strokeColor=#6c8ebf;" vertex="1" parent="1">
          <mxGeometry x="180" y="50" width="410" height="510" as="geometry" />
        </mxCell>
        <mxCell id="SzxMd70FmIVpg1iMvTQR-4" value="&lt;font face=&quot;Comic Sans MS&quot; style=&quot;font-size: 16px;&quot;&gt;LinearLayout&lt;/font&gt;" style="rounded=1;whiteSpace=wrap;html=1;fillColor=none;strokeColor=none;" vertex="1" parent="1">
          <mxGeometry x="325" y="35" width="120" height="60" as="geometry" />
        </mxCell>
        <mxCell id="SzxMd70FmIVpg1iMvTQR-5" value="" style="rounded=1;whiteSpace=wrap;html=1;arcSize=2;fillColor=#ffe6cc;strokeColor=#d79b00;" vertex="1" parent="1">
          <mxGeometry x="190" y="130" width="390" height="420" as="geometry" />
        </mxCell>
        <mxCell id="SzxMd70FmIVpg1iMvTQR-6" value="&lt;font face=&quot;Comic Sans MS&quot; style=&quot;font-size: 16px;&quot;&gt;ViewStub&lt;/font&gt;" style="rounded=1;whiteSpace=wrap;html=1;fillColor=#d5e8d4;strokeColor=#82b366;" vertex="1" parent="1">
          <mxGeometry x="190" y="80" width="390" height="40" as="geometry" />
        </mxCell>
        <mxCell id="SzxMd70FmIVpg1iMvTQR-7" value="&lt;font face=&quot;Comic Sans MS&quot; style=&quot;font-size: 16px;&quot;&gt;FrameLayout&lt;/font&gt;" style="rounded=1;whiteSpace=wrap;html=1;fillColor=none;strokeColor=none;" vertex="1" parent="1">
          <mxGeometry x="325" y="120" width="120" height="60" as="geometry" />
        </mxCell>
        <mxCell id="SzxMd70FmIVpg1iMvTQR-8" value="" style="rounded=1;whiteSpace=wrap;html=1;arcSize=2;fillColor=#fff2cc;strokeColor=#d6b656;" vertex="1" parent="1">
          <mxGeometry x="200" y="170" width="370" height="370" as="geometry" />
        </mxCell>
        <mxCell id="SzxMd70FmIVpg1iMvTQR-9" value="&lt;font face=&quot;Comic Sans MS&quot; style=&quot;font-size: 16px;&quot;&gt;ViewStubCompat&lt;/font&gt;" style="rounded=1;whiteSpace=wrap;html=1;fillColor=#f8cecc;strokeColor=#b85450;" vertex="1" parent="1">
          <mxGeometry x="210" y="210" width="350" height="40" as="geometry" />
        </mxCell>
        <mxCell id="SzxMd70FmIVpg1iMvTQR-10" value="&lt;font face=&quot;Comic Sans MS&quot; style=&quot;font-size: 16px;&quot;&gt;FitWindowLinearLayout&lt;/font&gt;" style="rounded=1;whiteSpace=wrap;html=1;fillColor=none;strokeColor=none;" vertex="1" parent="1">
          <mxGeometry x="325" y="160" width="120" height="60" as="geometry" />
        </mxCell>
        <mxCell id="SzxMd70FmIVpg1iMvTQR-11" value="" style="rounded=1;whiteSpace=wrap;html=1;arcSize=3;fillColor=#e1d5e7;strokeColor=#9673a6;" vertex="1" parent="1">
          <mxGeometry x="210" y="265" width="350" height="265" as="geometry" />
        </mxCell>
        <mxCell id="SzxMd70FmIVpg1iMvTQR-12" value="&lt;font face=&quot;Comic Sans MS&quot; style=&quot;font-size: 16px;&quot;&gt;ContentFrameLayout&lt;/font&gt;" style="rounded=1;whiteSpace=wrap;html=1;fillColor=none;strokeColor=none;" vertex="1" parent="1">
          <mxGeometry x="325" y="254" width="120" height="60" as="geometry" />
        </mxCell>
        <mxCell id="SzxMd70FmIVpg1iMvTQR-13" value="&lt;div style=&quot;orphans: 2; text-align: center; font-size: 16px;&quot;&gt;&lt;font face=&quot;Comic Sans MS&quot;&gt;&lt;span style=&quot;orphans: 4; text-align: start; box-sizing: border-box;&quot;&gt;对应继承&lt;/span&gt;&lt;span style=&quot;color: rgb(51, 51, 51); orphans: 4; text-align: start; box-sizing: border-box;&quot;&gt;AppCompatActivity的xml&lt;/span&gt;&lt;/font&gt;&lt;/div&gt;" style="rounded=1;whiteSpace=wrap;html=1;" vertex="1" parent="1">
          <mxGeometry x="220" y="300" width="330" height="220" as="geometry" />
        </mxCell>
      </root>
    </mxGraphModel>
  </diagram>
  <diagram id="WaZS9BG_5ky_Au0z7314" name="第 3 页">
    <mxGraphModel dx="1050" dy="625" grid="0" gridSize="10" guides="1" tooltips="1" connect="1" arrows="1" fold="1" page="1" pageScale="1" pageWidth="827" pageHeight="1169" math="0" shadow="0">
      <root>
        <mxCell id="0" />
        <mxCell id="1" parent="0" />
        <mxCell id="5J1O7dY0RU1pMyZ_wR_q-1" value="" style="rounded=1;whiteSpace=wrap;html=1;" vertex="1" parent="1">
          <mxGeometry x="270" y="40" width="237" height="280" as="geometry" />
        </mxCell>
        <mxCell id="KhH-e0EHArY9VCefuHor-1" value="&lt;font face=&quot;Comic Sans MS&quot; style=&quot;font-size: 16px;&quot;&gt;ActivityRecord&lt;/font&gt;" style="rounded=1;whiteSpace=wrap;html=1;fillColor=none;strokeColor=none;" vertex="1" parent="1">
          <mxGeometry x="328.5" y="40" width="120" height="60" as="geometry" />
        </mxCell>
        <mxCell id="KhH-e0EHArY9VCefuHor-2" value="" style="rounded=1;whiteSpace=wrap;html=1;" vertex="1" parent="1">
          <mxGeometry x="290" y="90" width="200" height="90" as="geometry" />
        </mxCell>
        <mxCell id="KhH-e0EHArY9VCefuHor-3" value="&lt;font face=&quot;Comic Sans MS&quot; style=&quot;font-size: 16px;&quot;&gt;WindowState&lt;/font&gt;" style="rounded=1;whiteSpace=wrap;html=1;fillColor=none;strokeColor=none;" vertex="1" parent="1">
          <mxGeometry x="330" y="105" width="120" height="60" as="geometry" />
        </mxCell>
        <mxCell id="KhH-e0EHArY9VCefuHor-4" value="&lt;font face=&quot;Comic Sans MS&quot; style=&quot;font-size: 16px;&quot;&gt;WindowState&lt;/font&gt;" style="rounded=1;whiteSpace=wrap;html=1;fillColor=none;strokeColor=none;" vertex="1" parent="1">
          <mxGeometry x="330" y="215" width="120" height="60" as="geometry" />
        </mxCell>
        <mxCell id="KhH-e0EHArY9VCefuHor-5" value="" style="rounded=1;whiteSpace=wrap;html=1;" vertex="1" parent="1">
          <mxGeometry x="290" y="200" width="200" height="90" as="geometry" />
        </mxCell>
        <mxCell id="KhH-e0EHArY9VCefuHor-8" value="&lt;font face=&quot;Comic Sans MS&quot; style=&quot;font-size: 16px;&quot;&gt;WindowState&lt;/font&gt;" style="rounded=1;whiteSpace=wrap;html=1;fillColor=none;strokeColor=none;" vertex="1" parent="1">
          <mxGeometry x="330" y="215" width="120" height="60" as="geometry" />
        </mxCell>
        <mxCell id="KhH-e0EHArY9VCefuHor-10" value="&lt;font face=&quot;Comic Sans MS&quot; style=&quot;font-size: 16px;&quot;&gt;...&lt;/font&gt;" style="rounded=1;whiteSpace=wrap;html=1;fillColor=none;strokeColor=none;" vertex="1" parent="1">
          <mxGeometry x="330" y="275" width="120" height="60" as="geometry" />
        </mxCell>
      </root>
    </mxGraphModel>
  </diagram>
</mxfile>
